<?xml version="1.0" encoding="utf-8"?>
<!-- Generator: Adobe Illustrator 28.3.0, SVG Export Plug-In . SVG Version: 6.00 Build 0)  -->
<svg version="1.1" id="Слой_1" xmlns="http://www.w3.org/2000/svg" xmlns:xlink="http://www.w3.org/1999/xlink" x="0px" y="0px"
	 viewBox="0 0 1080 1024" style="enable-background:new 0 0 1080 1024;" xml:space="preserve">
<style type="text/css">
	.st0{fill:#FFFFFF;}
</style>
<g>
	<path class="st0" d="M539.8,129.2c0.8,1,1.6,1.5,2,2.3c17.1,28.5,34.2,57.1,51.4,85.6c1.8,3,2.8,6,2.5,9.4c-0.1,0.9,0,1.9,0,2.9
		c0,11.1,0.1,11,6.6,19.9c10.7,14.9,21.3,30,31.9,45c8.3,11.8,16.6,23.6,25,35.3c1.7,2.3,2.5,4.6,2.5,7.4c-0.1,8.6,0,17.1-0.1,25.7
		c0,3.2,0.9,5.8,2.9,8.3c17.3,22.7,34.4,45.5,51.6,68.2c2.2,2.8,3,5.7,3,9.2c-0.1,54.1-0.2,108.1-0.2,162.2c0,1,0,1.9,0,2.9
		c0,2-1.1,2.8-3,2.9c-1,0-1.9,0-2.9,0c-40.6,0-81.2,0.1-121.8,0c-28.5-0.1-57.1-0.4-85.6-0.4c-45.8,0-91.6,0.3-137.4,0.4
		c-7,0-7,0-7-7c0-49.9,0-99.9-0.1-149.8c0-3.1,0.6-5.8,2.4-8.4c15.7-22.8,31.3-45.8,47-68.6c3-4.4,3.2-4.4,8-2.1
		c4.8,2.4,9.6,4.8,14.5,7.2c4,1.9,5.1,1.2,5.1-3.3c0-15.2,0.1-30.4-0.1-45.7c0-4,0.8-7.2,3.3-10.5c13.3-17.6,26.3-35.3,39.5-53
		c2.6-3.4,3.9-7,3.9-11.4c-0.2-12.4,0-24.7-0.2-37.1c0-3.4,0.6-6.4,2.4-9.5c14.5-24.2,28.9-48.4,43.4-72.6c2.5-4.2,5-8.4,7.6-12.6
		C538.2,131,538.9,130.3,539.8,129.2L539.8,129.2z M410,400.6c-0.4-0.1-0.9-0.2-1.4-0.2c-0.8,0.9-1.8,1.7-2.5,2.7
		c-11.2,16.3-22.3,32.7-33.6,49c-2.7,3.9-4,8-3.9,12.8c0.1,45.2,0,90.4,0,135.6c0,1.1,0,2.2,0,3.3c0.2,3.9,1.1,4.9,4.8,5
		c10.9,0.1,21.9,0.1,32.8,0c3.5,0,4.1-0.8,4.3-4.3c0.1-1.4,0-2.9,0-4.3c0-19.7,0.1-39.3-0.1-59c0-3.3,0.9-5.6,3.7-7.5
		c9.3-6.3,18.4-12.9,27.7-19.3c0.8-0.6,1.8-1,3.4-1.8c0,2.4,0,4.1,0,5.8c0,28.1-0.1,56.1,0,84.2c0,5.6,0.8,6.3,6.3,6.4
		c7.9,0.1,15.9,0,23.8,0c6,0,9-2.9,9-8.8c-0.1-102.1-0.1-204.2-0.2-306.4c0-1.1,0.1-2.3-0.1-3.3c-0.2-0.9-0.8-1.8-1.9-4
		c-0.9,1.6-1.3,2.5-1.9,3.3c-10.5,14.1-20.9,28.3-31.5,42.3c-2.5,3.2-3.4,6.5-3.4,10.5c0.1,34.7,0,69.5,0,104.2c0,3.4-1,5.7-3.7,7.6
		c-9.3,6.6-18.5,13.3-27.8,19.9c-0.8,0.6-1.8,0.8-3.3,1.5c0-2.4,0-4.1,0-5.8c0-21.1,0-42.2-0.1-63.3
		C410.6,404.5,410.2,402.5,410,400.6L410,400.6z M533.2,155.5c-0.4,0.7-0.7,1.2-1,1.8c-5.2,8.7-10.3,17.4-15.5,26.1
		c-6.7,11.3-13.4,22.6-20.3,33.8c-2.6,4.2-4,8.3-4,13.3c0.1,87.5,0,175,0,262.5c0,36-0.1,72-0.1,108c0,6.9,0.3,7.2,7.3,7.2
		c9.4,0,18.7,0,28.1,0c5.6,0,8.3-2.8,8.3-8.5c-0.1-63.4-0.3-126.8-0.4-190.2c-0.1-49.5-0.1-98.9-0.2-148.4c0-33.4,0-66.9,0-100.4
		C535.5,159.2,536.1,157.3,533.2,155.5L533.2,155.5z M546,156.1c-2.5,1.5-1.8,3.4-1.8,5c-0.1,78.2-0.2,156.3-0.2,234.5
		c0,52.5,0.1,105,0.2,157.4c0,15.9-0.2,31.7-0.2,47.6c0,7.3,0.4,7.7,7.9,7.7c7.3,0,14.6,0,21.9,0c2.9,0,5.7,0.1,8.6,0
		c4.2-0.1,4.8-0.8,5-5.1c0-1.1,0-2.2,0-3.3c0-12.2,0-24.4,0-36.6c-0.1-111.6-0.1-223.2-0.1-334.8c0-3.7-1-6.7-2.9-9.8
		c-11.9-19.7-23.7-39.4-35.5-59C548,158.3,546.9,157.2,546,156.1L546,156.1z M597.5,258.3c-0.4,0.1-0.7,0.3-1.1,0.4
		c-0.2,1.6-0.5,3.2-0.5,4.9c-0.1,112.4-0.1,224.8-0.2,337.2c0,1.1,0,2.2,0,3.3c0.2,3.6,1,4.3,4.6,4.6c1.3,0.1,2.5,0.1,3.8,0.1
		c13.3,0,26.6,0,39.9,0c6.5,0,9.8-3.2,9.8-9.7c-0.1-61.8-0.3-123.6-0.4-185.5c0-23.9-0.1-47.9,0.1-71.8c0-4-0.7-7.4-3.4-10.5
		c-2.6-3-4.7-6.4-7-9.6c-14.1-19.9-28.1-39.9-42.3-59.8C599.9,260.6,598.6,259.5,597.5,258.3L597.5,258.3z M663.2,384.8
		c-0.4,0.2-0.9,0.5-1.3,0.7c-0.1,1.5-0.3,3.1-0.3,4.6c-0.1,70.2-0.1,140.4-0.2,210.6c0,1.3-0.1,2.5,0.1,3.8c0.3,2.9,1.2,3.8,4.2,4.1
		c1.3,0.1,2.5,0.1,3.8,0.1c10.9,0,21.9,0,32.8,0c1.3,0,2.5,0.1,3.8,0c4-0.2,4.9-1.2,5.1-5.3c0-0.6,0-1.3,0-1.9
		c-0.1-50.1-0.1-100.2-0.1-150.2c0-3.2-0.8-5.8-2.8-8.3c-14-18.4-27.9-36.9-41.9-55.3C665.6,386.6,664.3,385.8,663.2,384.8
		L663.2,384.8z M437.6,528.5c-2.5,1.2-4.1,1.7-5.5,2.6c-3,2-5.8,4.5-8.9,6.2c-3.6,2-4.5,4.7-4.5,8.6c0.1,18.7,0.1,37.4,0.1,56.1
		c0,1,0,1.9,0.1,2.9c0.1,2.5,1.4,3.8,3.9,3.8c3.3,0.1,6.7,0.1,10,0c4.3-0.1,5.2-1.1,5.4-5.4c0-0.6,0-1.3,0-1.9c0-22.3,0-44.7-0.1-67
		C438,532.9,437.8,531.3,437.6,528.5L437.6,528.5z M418.8,424.8L418.8,424.8c0,8.4,0,16.8,0,25.2c0,1.9-0.1,3.8,0.1,5.7
		c0.3,2.7,1.6,3.4,3.8,1.8c4.3-3,8.6-6,12.6-9.3c1.3-1.1,1.8-3.1,2.6-4.8c0.2-0.5,0.1-1.3,0.1-1.9c0-12.3,0-24.7,0-37
		c0-2.3,0-4.7-2.2-5.9c-4.4-2.5-8.9-4.7-13.5-6.8c-1.8-0.8-3.1,0.1-3.3,2.2c-0.1,1.1-0.1,2.2-0.1,3.3
		C418.8,406.4,418.8,415.6,418.8,424.8L418.8,424.8z"/>
	<g>
		<path class="st0" d="M496.4,832.3c0-1.7,0-3.4,0-5.1c0-26.2,0-52.3,0-78.5c0-0.6,0-1.3,0-1.9c0.2-3.3,0.6-3.7,4-3.8
			c1.9-0.1,3.8,0,5.7,0c6.2,0,12.4-0.1,18.6,0c3.5,0.1,3.7,0.4,3.9,3.9c0,0.8,0,1.6,0,2.4c0,45.2,0,90.4,0,135.6
			c0,4.3-2.2,6.5-6.6,6.5c-7.6,0-15.2-0.1-22.8,0.1c-3.2,0.1-5.2-1-6.9-3.8c-16.9-27.9-34-55.7-51-83.6c-0.7-1.1-1.6-2.2-2.4-3.2
			c-0.4,0.1-0.7,0.2-1.1,0.3c-0.1,1.5-0.4,3-0.4,4.4c0,26.5,0,53,0,79.4c0,4.3-2.1,6.4-6.3,6.4c-6.8,0-13.6,0-20.5,0
			c-5.1,0-5.4-0.3-5.4-5.4c0-31.4,0-62.8,0-94.2c0-14.6,0-29.2,0-43.8c0-4.7,0.2-4.9,4.7-4.9c8.4-0.1,16.8,0.1,25.2-0.1
			c3.1-0.1,4.9,1.2,6.5,3.7c12.5,20.6,25.1,41.1,37.7,61.6c4.3,7,8.5,14.1,12.8,21.1c0.8,1.3,1.8,2.3,2.7,3.5
			C495.4,832.7,495.9,832.5,496.4,832.3L496.4,832.3z"/>
		<path class="st0" d="M317.4,739.3c17.8,0.3,33.5,5.2,47,16.3c11,9.1,18.8,20.4,23.1,34.1c6.1,19.6,5.8,39.1-1.5,58.3
			c-7.3,19.4-20.7,33.8-39.9,41c-26.4,10-52,7.3-75-10.3c-14.1-10.8-22-25.4-25.9-42.4c-2.2-9.6-2.5-19.2-1.5-28.8
			c2.8-27.5,15.8-48.4,41-60.9C295.1,741.4,306.3,739.3,317.4,739.3L317.4,739.3z M357.2,819.7c0.2-8.1-0.5-14.9-2.7-21.4
			c-5.6-16.4-19.9-28-37.8-27.8c-17.7,0.2-31.7,14-35.9,26.5c-4.4,13.1-4.8,26.1-0.1,39.1C286,851,296,860.9,312.1,863
			c14.8,2,27.2-2.9,36.1-15.2C354.5,839.1,357.3,829.2,357.2,819.7L357.2,819.7z"/>
		<path class="st0" d="M698.6,886.9c-1.7,0.2-3.1,0.4-4.5,0.4c-8.2,0-16.5,0.1-24.7,0c-4.8,0-5.2-0.3-5.2-5.1c0-16.8,0-33.6,0-50.4
			c0-28.9,0-57.7,0-86.6c0-1.7,0-3.4,0-4.9c4.4-1.3,29.8-1.3,34.7-0.1c0,1.5,0,3.2,0,4.9c0,15.4,0,30.8,0,46.1
			c0,1.1-0.3,2.4,0.1,3.3c0.4,1,1.4,1.9,2.4,2.3c1,0.4,2.2,0.2,3.3,0.2c16,0,32,0,48,0c1.1,0,2.2,0,3.3-0.1c1.7-0.1,2.6-1,2.6-2.7
			c0-1.1,0-2.2,0-3.3c0-15.2,0-30.4,0-45.7c0-1.7,0-3.4,0-5.3c1.6-0.3,2.6-0.6,3.7-0.6c8.9,0,17.8-0.1,26.6,0c4.4,0,4.5,0.2,4.5,4.6
			c0,46,0,92,0,137.9c0,5-0.4,5.4-5.4,5.4c-7.9,0-15.9,0-23.8,0c-5.6,0-5.6,0-5.6-5.5c0-16.2,0-32.3,0-48.5c0-4.6-2.2-6.9-6.7-6.9
			c-16,0-32,0-48,0c-4.9,0-5.1,0.1-5.1,5c0,16.5,0,33,0,49.5C699,882.8,698.8,884.7,698.6,886.9L698.6,886.9z"/>
		<path class="st0" d="M0,866.7c6.8-7.5,13.6-14.9,20.6-22.6c1.2,0.9,2.1,1.4,2.8,2.2c12.9,14.3,29.2,19.5,48,17.5
			c3.8-0.4,7.8-1.7,11.2-3.7c8.7-5.1,8.6-15.7-0.2-20.8c-3.8-2.2-8-3.8-12.3-4.9c-6.9-1.7-14-2.7-20.9-4.2
			c-11-2.5-21.6-6.1-30.5-13.5C11.2,810.4,7,802.5,5.9,793c-2.4-19.8,6.9-37.1,24.7-46.3c14.7-7.6,30.1-8.8,46.2-5.8
			c16.6,3,30.1,11.1,41.5,23.2c0.6,0.7,1.2,1.5,1.7,2.1c-1.5,3.5-15.1,19-20.7,23.4c-1-1.1-2-2.3-3-3.4
			c-12-12.9-26.3-19.6-44.3-15.4c-3,0.7-6,2.2-8.4,4.1c-7.8,5.9-6.4,16.1,2.7,19.6c4.7,1.8,9.7,2.9,14.6,4
			c6.8,1.6,13.7,2.7,20.4,4.3c9.9,2.5,19.2,6.4,27,13.3c10.5,9.3,14.5,21.3,13.4,35c-1.7,19.8-13.3,31.9-31.2,38.6
			c-15.7,5.9-31.9,5.7-48.2,2.4c-16.2-3.3-29.6-11.7-40.8-23.6C1,868.2,0.7,867.6,0,866.7L0,866.7z"/>
		<path class="st0" d="M544.7,743.3h98.5c0.3,0.8,0.7,1.2,0.7,1.6c0.1,8.1,0.2,16.2,0.1,24.2c0,2.9-0.6,3.2-4.5,3.2
			c-14.6,0-29.2,0-43.8,0c-4.6,0-9.2-0.1-13.8,0c-4.2,0.1-4.6,0.5-4.7,4.7c-0.1,6.3,0,12.7,0,19c0,5.3,0.4,5.7,5.7,5.8
			c16.8,0,33.6,0,50.4,0c1.1,0,2.2-0.1,3.3,0c3,0.2,3.7,0.7,3.7,3.7c0.1,7.3,0.1,14.6,0,21.9c0,3.1-0.7,3.7-4.1,3.7
			c-8.1,0.1-16.2,0-24.3,0c-9.8,0-19.7,0-29.5,0c-4.6,0-5.2,0.6-5.2,5.2c-0.1,6.7,0,13.3,0,20c0,5.2,0.4,5.5,5.8,5.5
			c18.2,0,36.5,0,54.7,0c1.9,0,3.7,0,5.5,0c0.4,1.2,0.8,1.8,0.8,2.4c0,7.9,0,15.9,0.1,23.8c0,2.1-0.9,3.3-3.1,3.2c-1,0-1.9,0-2.9,0
			c-29.2,0-58.3,0-87.5,0c-1.1,0-2.2,0-3.3,0c-1.5-0.1-2.3-0.9-2.4-2.4c-0.1-1.1-0.1-2.2-0.1-3.3c0-45.7,0-91.3,0-137
			C544.7,747,544.7,745.5,544.7,743.3L544.7,743.3z"/>
		<path class="st0" d="M243.1,742.9v29.3c-1.9,0.1-3.6,0.3-5.3,0.3c-9.5,0-19,0-28.5,0c-1.1,0-2.2-0.1-3.3,0
			c-3.1,0.2-3.6,0.7-3.7,3.7c-0.1,1,0,1.9,0,2.9c0,35,0,70.1,0,105.1c0,1.3,0,2.5,0,3.8c-0.1,2.1-1,3.3-3.2,3.3
			c-9.3,0-18.7,0-28.5,0c-0.2-2.4-0.5-4.4-0.5-6.3c0-35.2,0-70.4,0-105.6c0-4.5-2.2-6.8-6.7-6.8c-9.8,0-19.7,0-29.5,0
			c-4.9,0-5.1-0.1-5.1-5c0-6.8-0.1-13.6,0-20.4c0-3.7,0.4-4.1,4.1-4.1c7.8-0.1,15.5,0,23.3,0c26.9,0,53.9,0,80.8,0L243.1,742.9
			L243.1,742.9z"/>
		<path class="st0" d="M867.3,739.4c11.8-0.1,22.7-0.2,34.4,0.1c0,2.3,0,4,0,5.6c0,34.9,0,69.8,0,104.6c0,0.5,0,1,0,1.4
			c0,5.4,0.4,5.7,5.6,5.8c8.6,0,17.1,0,25.7,0c9.7,0,19.3,0,29,0c4.8,0,5.1,0.4,5.1,5.1c0,6.8,0,13.6,0,20.5c0,4.4-0.3,4.7-4.5,4.7
			c-30.3,0-60.6,0-90.9,0c-4,0-4.4-0.4-4.4-4.4c-0.1-5.1,0-10.2,0-15.2c0-40.7,0-81.5,0-122.2C867.4,743.8,867.4,742,867.3,739.4
			L867.3,739.4z"/>
		<path class="st0" d="M1014.7,739.8v5.7c0,35,0,70,0,105.1c0,1.1,0,2.2,0,3.3c0.1,1.9,1.1,2.9,3,3c1.4,0.1,2.9,0.1,4.3,0.1
			c17.1,0,34.2,0,51.3,0c1,0,1.9,0,2.9,0c3.1,0.2,3.5,0.6,3.8,3.6c0.1,0.8,0,1.6,0,2.4c0,6.2,0,12.4,0,18.5c0,1.7-0.2,3.4-0.4,5.4
			c-1.7,0.1-3.1,0.4-4.5,0.4c-29.8,0-59.6,0-89.4,0c-5.2,0-5.4-0.2-5.4-5.3c0-45.9,0-91.9,0-137.9c0-4.7,0.1-4.8,4.8-4.8
			c8.4,0,16.8,0,25.2,0C1011.6,739.3,1012.8,739.6,1014.7,739.8L1014.7,739.8z"/>
		<path class="st0" d="M847.9,740v4.9c0,45.5,0,90.9,0,136.4c0,0.6,0,1.3,0,1.9c-0.1,4-0.3,4.2-4.5,4.2c-8.6,0-17.1,0-25.7,0
			c-4.5,0-4.8-0.4-4.8-4.9c0-46.4,0-92.8,0-139.2c0-0.9,0.2-1.9,0.2-2.7C816.4,739.1,840.9,738.8,847.9,740L847.9,740z"/>
	</g>
</g>
</svg>
