<svg width="50" height="50" viewBox="0 0 50 50" fill="none" xmlns="http://www.w3.org/2000/svg">
<g clip-path="url(#clip0_161_518)">
<path d="M25 50C38.8071 50 50 38.8071 50 25C50 11.1929 38.8071 0 25 0C11.1929 0 0 11.1929 0 25C0 38.8071 11.1929 50 25 50Z" fill="url(#paint0_linear_161_518)"/>
<path d="M37.4763 14.6586C37.6985 13.22 36.3313 12.085 35.052 12.6464L9.57989 23.83C8.66275 24.2329 8.72989 25.6221 9.68132 25.925L14.9342 27.5979C15.937 27.9171 17.0227 27.7521 17.8977 27.1471L29.7413 18.965C30.0985 18.7179 30.4877 19.2264 30.1827 19.5407L21.6577 28.33C20.8306 29.1829 20.9949 30.6279 21.9899 31.2514L31.5349 37.2371C32.6056 37.9086 33.9827 37.2343 34.1827 35.94L37.477 14.6593L37.4763 14.6586Z" fill="white"/>
</g>
<defs>
<linearGradient id="paint0_linear_161_518" x1="25" y1="-0.000714286" x2="25" y2="49.9993" gradientUnits="userSpaceOnUse">
<stop stop-color="#37BBFE"/>
<stop offset="1" stop-color="#007DBB"/>
</linearGradient>
<clipPath id="clip0_161_518">
<rect width="50" height="50" fill="white"/>
</clipPath>
</defs>
</svg>
