<svg width="50" height="50" viewBox="0 0 50 50" fill="none" xmlns="http://www.w3.org/2000/svg">
<g clip-path="url(#clip0_159_507)">
<path d="M0 50C0.534694 48.0561 1.0448 46.2041 1.55491 44.3521C2.17565 42.0954 2.80253 39.8387 3.39868 37.5728C3.46014 37.3367 3.42634 37.0148 3.30957 36.8001C-1.79153 27.4483 -0.583861 16.3028 6.51158 8.32771C10.8322 3.4709 16.2959 0.680692 22.7982 0.104252C33.781 -0.870789 43.722 5.09597 48.064 15.1714C52.2095 24.7838 49.5298 36.4475 41.6108 43.3219C36.7218 47.5624 31.0399 49.6719 24.559 49.5738C20.6625 49.5125 16.9842 48.5436 13.5241 46.7499C13.3212 46.6456 13.017 46.6303 12.7896 46.6885C8.70874 47.7372 4.63401 48.8042 0.559277 49.8682C0.408703 49.908 0.258128 49.9387 0 50ZM5.97689 44.1283C8.42603 43.4844 10.7707 42.8834 13.1031 42.2487C13.5947 42.1138 13.9789 42.169 14.4183 42.4296C19.3319 45.321 24.5867 46.1274 30.1241 44.7722C40.6213 42.1966 47.3173 31.8544 45.4858 21.2393C43.6759 10.7408 33.6642 2.62464 21.9071 4.41835C17.1809 5.1389 13.1522 7.28522 9.92563 10.8021C5.65116 15.4627 3.88421 20.9818 4.56026 27.2521C4.90443 30.444 6.02299 33.3844 7.78686 36.0704C7.99889 36.3923 8.04191 36.6714 7.92822 37.0332C7.6916 37.7936 7.49493 38.5693 7.28597 39.3389C6.85576 40.9057 6.42862 42.4726 5.97689 44.1283Z" fill="#4BCA5B"/>
<path d="M16.9997 13.3716C18.1397 13.0741 18.6406 13.7518 19.0155 14.7176C19.5717 16.1556 20.1832 17.5753 20.7948 18.9918C21.0099 19.4886 21.0068 19.9301 20.6811 20.3594C20.1802 21.0247 19.6946 21.7054 19.1661 22.3493C18.8281 22.7632 18.8158 23.1342 19.0831 23.5819C21.1113 26.9823 23.9415 29.4444 27.6382 30.9131C28.1453 31.1155 28.5478 31.0419 28.892 30.6157C29.5127 29.843 30.1611 29.0918 30.7573 28.3007C31.1014 27.8408 31.504 27.6568 32.0172 27.896C33.7995 28.7239 35.5726 29.5671 37.3334 30.4378C37.5178 30.5298 37.6929 30.8426 37.6991 31.0603C37.7513 32.9 37.2166 34.4453 35.5572 35.5154C33.5321 36.8216 31.4057 36.9565 29.147 36.328C23.4744 34.755 19.1692 31.3056 15.7152 26.6757C14.4737 25.0138 13.2814 23.3213 12.7498 21.2792C12.1044 18.8017 12.4947 16.545 14.1971 14.549C14.9377 13.6812 15.7766 13.1355 16.9997 13.3716Z" fill="#4BCA5B"/>
</g>
<defs>
<clipPath id="clip0_159_507">
<rect width="50" height="50" fill="white"/>
</clipPath>
</defs>
</svg>
